<mxfile host="app.diagrams.net" modified="2020-11-02T19:33:50.136Z" agent="5.0 (Macintosh; Intel Mac OS X 10_15_6) AppleWebKit/537.36 (KHTML, like Gecko) Chrome/85.0.4183.121 Safari/537.36" etag="jsnSBU8r0Z1MyzQOFMTX" version="13.8.7" type="github">
  <diagram id="qGFjMoivcsqQGCG5rgOJ" name="Page-1">
    <mxGraphModel dx="815" dy="412" grid="1" gridSize="10" guides="1" tooltips="1" connect="1" arrows="1" fold="1" page="1" pageScale="1" pageWidth="850" pageHeight="1100" math="0" shadow="0">
      <root>
        <mxCell id="0" />
        <mxCell id="1" parent="0" />
        <mxCell id="_EYigAwisPWJJv03IWuS-47" value="" style="edgeStyle=orthogonalEdgeStyle;rounded=0;orthogonalLoop=1;jettySize=auto;html=1;" edge="1" parent="1" source="_EYigAwisPWJJv03IWuS-1" target="_EYigAwisPWJJv03IWuS-2">
          <mxGeometry relative="1" as="geometry" />
        </mxCell>
        <mxCell id="_EYigAwisPWJJv03IWuS-1" value="Start" style="ellipse;whiteSpace=wrap;html=1;" vertex="1" parent="1">
          <mxGeometry x="320" y="20" width="120" height="80" as="geometry" />
        </mxCell>
        <mxCell id="_EYigAwisPWJJv03IWuS-46" value="" style="edgeStyle=orthogonalEdgeStyle;rounded=0;orthogonalLoop=1;jettySize=auto;html=1;" edge="1" parent="1" source="_EYigAwisPWJJv03IWuS-2" target="_EYigAwisPWJJv03IWuS-3">
          <mxGeometry relative="1" as="geometry" />
        </mxCell>
        <mxCell id="_EYigAwisPWJJv03IWuS-2" value="Read card info" style="rounded=0;whiteSpace=wrap;html=1;" vertex="1" parent="1">
          <mxGeometry x="320" y="150" width="120" height="60" as="geometry" />
        </mxCell>
        <mxCell id="_EYigAwisPWJJv03IWuS-45" value="" style="edgeStyle=orthogonalEdgeStyle;rounded=0;orthogonalLoop=1;jettySize=auto;html=1;" edge="1" parent="1" source="_EYigAwisPWJJv03IWuS-3" target="_EYigAwisPWJJv03IWuS-4">
          <mxGeometry relative="1" as="geometry" />
        </mxCell>
        <mxCell id="_EYigAwisPWJJv03IWuS-3" value="Customer= C" style="rounded=0;whiteSpace=wrap;html=1;" vertex="1" parent="1">
          <mxGeometry x="320" y="260" width="120" height="60" as="geometry" />
        </mxCell>
        <mxCell id="_EYigAwisPWJJv03IWuS-19" value="no" style="edgeStyle=orthogonalEdgeStyle;rounded=0;orthogonalLoop=1;jettySize=auto;html=1;" edge="1" parent="1" source="_EYigAwisPWJJv03IWuS-4" target="_EYigAwisPWJJv03IWuS-5">
          <mxGeometry relative="1" as="geometry" />
        </mxCell>
        <mxCell id="_EYigAwisPWJJv03IWuS-23" style="edgeStyle=orthogonalEdgeStyle;rounded=0;orthogonalLoop=1;jettySize=auto;html=1;entryX=0;entryY=0.5;entryDx=0;entryDy=0;" edge="1" parent="1" source="_EYigAwisPWJJv03IWuS-4" target="_EYigAwisPWJJv03IWuS-20">
          <mxGeometry relative="1" as="geometry" />
        </mxCell>
        <mxCell id="_EYigAwisPWJJv03IWuS-4" value="Is card from one bank?" style="rhombus;whiteSpace=wrap;html=1;" vertex="1" parent="1">
          <mxGeometry x="305" y="360" width="150" height="110" as="geometry" />
        </mxCell>
        <mxCell id="_EYigAwisPWJJv03IWuS-15" value="" style="edgeStyle=orthogonalEdgeStyle;rounded=0;orthogonalLoop=1;jettySize=auto;html=1;" edge="1" parent="1" source="_EYigAwisPWJJv03IWuS-5" target="_EYigAwisPWJJv03IWuS-6">
          <mxGeometry relative="1" as="geometry" />
        </mxCell>
        <mxCell id="_EYigAwisPWJJv03IWuS-5" value="Counter = Counter + 1" style="rounded=0;whiteSpace=wrap;html=1;" vertex="1" parent="1">
          <mxGeometry x="320" y="510" width="120" height="60" as="geometry" />
        </mxCell>
        <mxCell id="_EYigAwisPWJJv03IWuS-14" value="" style="edgeStyle=orthogonalEdgeStyle;rounded=0;orthogonalLoop=1;jettySize=auto;html=1;" edge="1" parent="1" source="_EYigAwisPWJJv03IWuS-6" target="_EYigAwisPWJJv03IWuS-7">
          <mxGeometry relative="1" as="geometry" />
        </mxCell>
        <mxCell id="_EYigAwisPWJJv03IWuS-18" value="no" style="edgeLabel;html=1;align=center;verticalAlign=middle;resizable=0;points=[];" vertex="1" connectable="0" parent="_EYigAwisPWJJv03IWuS-14">
          <mxGeometry x="-0.1781" y="2" relative="1" as="geometry">
            <mxPoint as="offset" />
          </mxGeometry>
        </mxCell>
        <mxCell id="_EYigAwisPWJJv03IWuS-17" value="yes" style="edgeStyle=orthogonalEdgeStyle;rounded=0;orthogonalLoop=1;jettySize=auto;html=1;" edge="1" parent="1" source="_EYigAwisPWJJv03IWuS-6" target="_EYigAwisPWJJv03IWuS-16">
          <mxGeometry relative="1" as="geometry" />
        </mxCell>
        <mxCell id="_EYigAwisPWJJv03IWuS-6" value="If counter &amp;gt; 3" style="rhombus;whiteSpace=wrap;html=1;" vertex="1" parent="1">
          <mxGeometry x="315" y="630" width="140" height="80" as="geometry" />
        </mxCell>
        <mxCell id="_EYigAwisPWJJv03IWuS-13" value="" style="edgeStyle=orthogonalEdgeStyle;rounded=0;orthogonalLoop=1;jettySize=auto;html=1;" edge="1" parent="1" source="_EYigAwisPWJJv03IWuS-7" target="_EYigAwisPWJJv03IWuS-8">
          <mxGeometry relative="1" as="geometry" />
        </mxCell>
        <mxCell id="_EYigAwisPWJJv03IWuS-7" value="verify PIN" style="rounded=0;whiteSpace=wrap;html=1;" vertex="1" parent="1">
          <mxGeometry x="325" y="760" width="120" height="60" as="geometry" />
        </mxCell>
        <mxCell id="_EYigAwisPWJJv03IWuS-10" value="yes" style="edgeStyle=orthogonalEdgeStyle;rounded=0;orthogonalLoop=1;jettySize=auto;html=1;" edge="1" parent="1" source="_EYigAwisPWJJv03IWuS-8" target="_EYigAwisPWJJv03IWuS-9">
          <mxGeometry relative="1" as="geometry" />
        </mxCell>
        <mxCell id="_EYigAwisPWJJv03IWuS-11" style="edgeStyle=orthogonalEdgeStyle;rounded=0;orthogonalLoop=1;jettySize=auto;html=1;entryX=0;entryY=0.5;entryDx=0;entryDy=0;" edge="1" parent="1" source="_EYigAwisPWJJv03IWuS-8" target="_EYigAwisPWJJv03IWuS-5">
          <mxGeometry relative="1" as="geometry">
            <mxPoint x="220" y="650" as="targetPoint" />
            <Array as="points">
              <mxPoint x="200" y="890" />
              <mxPoint x="200" y="540" />
            </Array>
          </mxGeometry>
        </mxCell>
        <mxCell id="_EYigAwisPWJJv03IWuS-12" value="no" style="edgeLabel;html=1;align=center;verticalAlign=middle;resizable=0;points=[];" vertex="1" connectable="0" parent="_EYigAwisPWJJv03IWuS-11">
          <mxGeometry x="0.234" y="-3" relative="1" as="geometry">
            <mxPoint as="offset" />
          </mxGeometry>
        </mxCell>
        <mxCell id="_EYigAwisPWJJv03IWuS-8" value="PIN ok ?" style="rhombus;whiteSpace=wrap;html=1;" vertex="1" parent="1">
          <mxGeometry x="345" y="850" width="80" height="80" as="geometry" />
        </mxCell>
        <mxCell id="_EYigAwisPWJJv03IWuS-9" value="withraw" style="ellipse;whiteSpace=wrap;html=1;" vertex="1" parent="1">
          <mxGeometry x="500" y="865" width="80" height="50" as="geometry" />
        </mxCell>
        <mxCell id="_EYigAwisPWJJv03IWuS-16" value="capture card" style="ellipse;whiteSpace=wrap;html=1;" vertex="1" parent="1">
          <mxGeometry x="530" y="630" width="110" height="70" as="geometry" />
        </mxCell>
        <mxCell id="_EYigAwisPWJJv03IWuS-25" style="edgeStyle=orthogonalEdgeStyle;rounded=0;orthogonalLoop=1;jettySize=auto;html=1;entryX=0.5;entryY=0;entryDx=0;entryDy=0;" edge="1" parent="1" source="_EYigAwisPWJJv03IWuS-20" target="_EYigAwisPWJJv03IWuS-24">
          <mxGeometry relative="1" as="geometry" />
        </mxCell>
        <mxCell id="_EYigAwisPWJJv03IWuS-26" value="bio" style="edgeLabel;html=1;align=center;verticalAlign=middle;resizable=0;points=[];" vertex="1" connectable="0" parent="_EYigAwisPWJJv03IWuS-25">
          <mxGeometry x="0.1057" y="-1" relative="1" as="geometry">
            <mxPoint as="offset" />
          </mxGeometry>
        </mxCell>
        <mxCell id="_EYigAwisPWJJv03IWuS-27" style="edgeStyle=orthogonalEdgeStyle;rounded=0;orthogonalLoop=1;jettySize=auto;html=1;entryX=1;entryY=0.75;entryDx=0;entryDy=0;" edge="1" parent="1" source="_EYigAwisPWJJv03IWuS-20" target="_EYigAwisPWJJv03IWuS-5">
          <mxGeometry relative="1" as="geometry">
            <Array as="points">
              <mxPoint x="585" y="555" />
            </Array>
          </mxGeometry>
        </mxCell>
        <mxCell id="_EYigAwisPWJJv03IWuS-28" value="pin" style="edgeLabel;html=1;align=center;verticalAlign=middle;resizable=0;points=[];" vertex="1" connectable="0" parent="_EYigAwisPWJJv03IWuS-27">
          <mxGeometry x="-0.2403" y="2" relative="1" as="geometry">
            <mxPoint as="offset" />
          </mxGeometry>
        </mxCell>
        <mxCell id="_EYigAwisPWJJv03IWuS-20" value="Bio or Pin?" style="rhombus;whiteSpace=wrap;html=1;" vertex="1" parent="1">
          <mxGeometry x="545" y="300" width="80" height="80" as="geometry" />
        </mxCell>
        <mxCell id="_EYigAwisPWJJv03IWuS-44" value="" style="edgeStyle=orthogonalEdgeStyle;rounded=0;orthogonalLoop=1;jettySize=auto;html=1;" edge="1" parent="1" source="_EYigAwisPWJJv03IWuS-24" target="_EYigAwisPWJJv03IWuS-29">
          <mxGeometry relative="1" as="geometry" />
        </mxCell>
        <mxCell id="_EYigAwisPWJJv03IWuS-24" value="counter + = 1" style="rounded=0;whiteSpace=wrap;html=1;" vertex="1" parent="1">
          <mxGeometry x="660" y="380" width="120" height="60" as="geometry" />
        </mxCell>
        <mxCell id="_EYigAwisPWJJv03IWuS-35" value="" style="edgeStyle=orthogonalEdgeStyle;rounded=0;orthogonalLoop=1;jettySize=auto;html=1;" edge="1" parent="1" source="_EYigAwisPWJJv03IWuS-29" target="_EYigAwisPWJJv03IWuS-30">
          <mxGeometry relative="1" as="geometry" />
        </mxCell>
        <mxCell id="_EYigAwisPWJJv03IWuS-42" value="no" style="edgeLabel;html=1;align=center;verticalAlign=middle;resizable=0;points=[];" vertex="1" connectable="0" parent="_EYigAwisPWJJv03IWuS-35">
          <mxGeometry x="0.531" y="2" relative="1" as="geometry">
            <mxPoint as="offset" />
          </mxGeometry>
        </mxCell>
        <mxCell id="_EYigAwisPWJJv03IWuS-40" style="edgeStyle=orthogonalEdgeStyle;rounded=0;orthogonalLoop=1;jettySize=auto;html=1;entryX=0.733;entryY=0.075;entryDx=0;entryDy=0;entryPerimeter=0;" edge="1" parent="1" source="_EYigAwisPWJJv03IWuS-29" target="_EYigAwisPWJJv03IWuS-16">
          <mxGeometry relative="1" as="geometry" />
        </mxCell>
        <mxCell id="_EYigAwisPWJJv03IWuS-41" value="yes" style="edgeLabel;html=1;align=center;verticalAlign=middle;resizable=0;points=[];" vertex="1" connectable="0" parent="_EYigAwisPWJJv03IWuS-40">
          <mxGeometry x="0.6212" y="1" relative="1" as="geometry">
            <mxPoint as="offset" />
          </mxGeometry>
        </mxCell>
        <mxCell id="_EYigAwisPWJJv03IWuS-29" value="if counter &amp;gt; 3" style="rhombus;whiteSpace=wrap;html=1;" vertex="1" parent="1">
          <mxGeometry x="680" y="480" width="80" height="80" as="geometry" />
        </mxCell>
        <mxCell id="_EYigAwisPWJJv03IWuS-34" value="" style="edgeStyle=orthogonalEdgeStyle;rounded=0;orthogonalLoop=1;jettySize=auto;html=1;" edge="1" parent="1" source="_EYigAwisPWJJv03IWuS-30" target="_EYigAwisPWJJv03IWuS-31">
          <mxGeometry relative="1" as="geometry" />
        </mxCell>
        <mxCell id="_EYigAwisPWJJv03IWuS-30" value="verify identity" style="rounded=0;whiteSpace=wrap;html=1;" vertex="1" parent="1">
          <mxGeometry x="660" y="590" width="120" height="60" as="geometry" />
        </mxCell>
        <mxCell id="_EYigAwisPWJJv03IWuS-36" style="edgeStyle=orthogonalEdgeStyle;rounded=0;orthogonalLoop=1;jettySize=auto;html=1;entryX=1;entryY=0.25;entryDx=0;entryDy=0;" edge="1" parent="1" source="_EYigAwisPWJJv03IWuS-31" target="_EYigAwisPWJJv03IWuS-24">
          <mxGeometry relative="1" as="geometry">
            <mxPoint x="820" y="460" as="targetPoint" />
            <Array as="points">
              <mxPoint x="800" y="730" />
              <mxPoint x="800" y="395" />
            </Array>
          </mxGeometry>
        </mxCell>
        <mxCell id="_EYigAwisPWJJv03IWuS-37" value="no" style="edgeLabel;html=1;align=center;verticalAlign=middle;resizable=0;points=[];" vertex="1" connectable="0" parent="_EYigAwisPWJJv03IWuS-36">
          <mxGeometry x="0.4697" y="1" relative="1" as="geometry">
            <mxPoint as="offset" />
          </mxGeometry>
        </mxCell>
        <mxCell id="_EYigAwisPWJJv03IWuS-38" style="edgeStyle=orthogonalEdgeStyle;rounded=0;orthogonalLoop=1;jettySize=auto;html=1;entryX=1;entryY=0.5;entryDx=0;entryDy=0;" edge="1" parent="1" source="_EYigAwisPWJJv03IWuS-31" target="_EYigAwisPWJJv03IWuS-9">
          <mxGeometry relative="1" as="geometry">
            <Array as="points">
              <mxPoint x="720" y="890" />
            </Array>
          </mxGeometry>
        </mxCell>
        <mxCell id="_EYigAwisPWJJv03IWuS-39" value="yes" style="edgeLabel;html=1;align=center;verticalAlign=middle;resizable=0;points=[];" vertex="1" connectable="0" parent="_EYigAwisPWJJv03IWuS-38">
          <mxGeometry x="-0.3077" y="1" relative="1" as="geometry">
            <mxPoint as="offset" />
          </mxGeometry>
        </mxCell>
        <mxCell id="_EYigAwisPWJJv03IWuS-31" value="if ID OK?" style="rhombus;whiteSpace=wrap;html=1;" vertex="1" parent="1">
          <mxGeometry x="680" y="690" width="80" height="80" as="geometry" />
        </mxCell>
        <mxCell id="_EYigAwisPWJJv03IWuS-48" value="Q3" style="text;html=1;align=center;verticalAlign=middle;resizable=0;points=[];autosize=1;" vertex="1" parent="1">
          <mxGeometry x="95" y="60" width="30" height="20" as="geometry" />
        </mxCell>
      </root>
    </mxGraphModel>
  </diagram>
</mxfile>
